HIERARCHY
ROOT Hips
{
	OFFSET 0.000000 0.000000 0.000000
	CHANNELS 6 Xposition Yposition Zposition Zrotation Yrotation Xrotation 
	JOINT LHipJoint
	{
		OFFSET 0.000000 0.000000 0.000000
		CHANNELS 3 Zrotation Yrotation Xrotation
		JOINT LeftUpLeg
		{
			OFFSET 1.363060 -1.794630 0.839290
			CHANNELS 3 Zrotation Yrotation Xrotation
			JOINT LeftLeg
			{
				OFFSET 2.448110 -6.726130 0.000000
				CHANNELS 3 Zrotation Yrotation Xrotation
				JOINT LeftFoot
				{
					OFFSET 2.562200 -7.039590 0.000000
					CHANNELS 3 Zrotation Yrotation Xrotation
					JOINT LeftToeBase
					{
						OFFSET 0.157640 -0.433110 2.322550
						CHANNELS 3 Zrotation Yrotation Xrotation
						End Site
						{
							OFFSET 0.000000 0.000000 0.000000
						}
					}
				}
			}
		}
	}
	JOINT RHipJoint
	{
		OFFSET 0.000000 0.000000 0.000000
		CHANNELS 3 Zrotation Yrotation Xrotation
		JOINT RightUpLeg
		{
			OFFSET -1.305520 -1.794630 0.839290
			CHANNELS 3 Zrotation Yrotation Xrotation
			JOINT RightLeg
			{
				OFFSET -2.542530 -6.985550 0.000000
				CHANNELS 3 Zrotation Yrotation Xrotation
				JOINT RightFoot
				{
					OFFSET -2.568260 -7.056230 0.000000
					CHANNELS 3 Zrotation Yrotation Xrotation
					JOINT RightToeBase
					{
						OFFSET -0.164730 -0.452590 2.363150
						CHANNELS 3 Zrotation Yrotation Xrotation
						End Site
						{
							OFFSET 0.000000 0.000000 0.000000
						}
					}
				}
			}
		}
	}
}
MOTION
Frames: 27
Frame Time: 0.008333
13.098973 15.430110 1.499047 101.545250 -85.808042 -55.279415 -8.232751 -0.138012 4.416174 -11.857685 -11.716085 -78.315343 -1.777834 3.229108 53.465681 3.750107 9.346481 -25.379225 -2.914200 0.000000 -34.406200 8.963556 1.121508 4.796470 4.196564 4.480762 -81.632749 1.361135 -4.933779 57.998330 -2.758858 -3.533095 -26.192562 1.588100 0.000001 -51.551900
13.070526 15.348716 1.506732 101.654675 -85.743015 -54.595873 -8.215960 -0.169867 4.502051 -11.739227 -12.138606 -79.806122 -1.692545 3.385125 54.785329 3.814048 9.389121 -25.932366 -3.032300 0.000001 -34.214700 8.972020 1.176292 4.876403 4.056895 4.525892 -83.179266 1.286307 -5.120499 59.283595 -2.769358 -3.431942 -26.637846 1.621400 0.000000 -51.702800
13.042569 15.264142 1.514287 101.740675 -85.671899 -53.883939 -8.197165 -0.204862 4.585785 -11.601058 -12.581213 -81.311386 -1.597960 3.541391 56.132589 3.882430 9.456760 -26.487191 -3.157000 0.000000 -33.986500 8.982995 1.238766 4.954454 3.892828 4.572137 -84.742823 1.200247 -5.309514 60.603749 -2.784108 -3.353012 -27.087752 1.658301 -0.000000 -51.837300
13.015289 15.176589 1.521703 101.808556 -85.596305 -53.156679 -8.176743 -0.244256 4.664196 -11.443678 -13.036763 -82.823522 -1.494269 3.697811 57.507900 3.954408 9.547111 -27.044824 -3.288700 -0.000000 -33.722701 8.995557 1.309238 5.028568 3.705313 4.619443 -86.312555 1.102957 -5.499731 61.956245 -2.803378 -3.296929 -27.545869 1.699900 0.000000 -51.944000
12.988957 15.085970 1.528974 101.835562 -85.512562 -52.392893 -8.154404 -0.287946 4.737612 -11.267635 -13.508836 -84.339934 -1.380961 3.853588 58.911305 4.030325 9.662906 -27.603902 -3.428200 -0.000000 -33.429700 9.009986 1.389000 5.098801 3.488466 4.663607 -87.887919 0.993062 -5.690929 63.345590 -2.827412 -3.265937 -28.012488 1.747000 -0.000001 -52.017300
12.963294 14.992718 1.536160 101.869453 -85.428441 -51.647029 -8.131411 -0.337965 4.800078 -11.074888 -13.978288 -85.850797 -1.259630 4.009579 60.342141 4.107903 9.794771 -28.168633 -3.574900 -0.000000 -33.114199 9.024166 1.476472 5.162117 3.251742 4.710234 -89.450883 0.872664 -5.881093 64.760325 -2.856070 -3.256739 -28.493617 1.800200 0.000000 -52.045700
12.938652 14.896895 1.543265 101.894813 -85.341395 -50.908138 -8.107572 -0.394058 4.851806 -10.868042 -14.446271 -87.351819 -1.130300 4.165272 61.798871 4.187092 9.943538 -28.737921 -3.729300 0.000000 -32.788700 9.038175 1.572232 5.218434 2.992691 4.755209 -90.998500 0.741153 -6.069952 66.202055 -2.889095 -3.269534 -28.988333 1.859900 0.000000 -52.031300
12.914928 14.798801 1.550323 101.927261 -85.254331 -50.195605 -8.083532 -0.456508 4.890868 -10.650811 -14.904173 -88.836059 -0.994021 4.320870 63.278617 4.266707 10.104725 -29.312174 -3.890700 -0.000000 -32.466200 9.051243 1.675214 5.266936 2.715923 4.799033 -92.521685 0.599621 -6.256530 67.664590 -2.925835 -3.301448 -29.496521 1.925800 -0.000001 -51.976300
12.891797 14.698795 1.557407 102.012198 -85.176135 -49.557806 -8.060889 -0.526838 4.913419 -10.425525 -15.334009 -90.297502 -0.852358 4.477656 64.780187 4.344766 10.269665 -29.894828 -4.058200 0.000000 -32.159500 9.061297 1.782498 5.305838 2.434178 4.849647 -94.007247 0.450559 -6.439280 69.136402 -2.965795 -3.348279 -30.020086 1.997799 0.000000 -51.884600
12.869469 14.597112 1.564514 102.138526 -85.104519 -48.988069 -8.039295 -0.603748 4.921080 -10.197191 -15.737778 -91.732152 -0.705716 4.635251 66.298076 4.421338 10.439488 -30.482310 -4.231200 0.000000 -31.882499 9.068823 1.893856 5.335929 2.147950 4.902914 -95.454528 0.294045 -6.618303 70.615983 -3.008012 -3.408180 -30.553420 2.075000 0.000000 -51.771499
12.847613 14.494018 1.571700 102.328306 -85.044543 -48.508260 -8.019678 -0.687203 4.913267 -9.968714 -16.106459 -93.136261 -0.555109 4.794225 67.828147 4.495566 10.610454 -31.074272 -4.408800 0.000000 -31.646200 9.073036 2.006950 5.357128 1.866036 4.963095 -96.857816 0.131719 -6.792888 72.095248 -3.051800 -3.478218 -31.093196 2.156700 0.000000 -51.650600
12.826140 14.389800 1.578955 102.588256 -84.997425 -48.126081 -8.002300 -0.776349 4.891398 -9.743094 -16.438052 -94.507932 -0.400976 4.954668 69.365394 4.567423 10.782754 -31.667851 -4.590500 0.000000 -31.458800 9.073905 2.120305 5.370436 1.592874 5.031098 -98.216301 -0.035634 -6.962840 73.569298 -3.096482 -3.556684 -31.633946 2.241900 -0.000001 -51.538600
12.804695 14.284734 1.586337 102.940265 -84.968272 -47.862582 -7.987751 -0.871223 4.855139 -9.521657 -16.725036 -95.846193 -0.243985 5.117261 70.905872 4.636417 10.954020 -32.262254 -4.775300 -0.000000 -31.324100 9.070747 2.231808 5.375280 1.337994 5.111623 -99.526666 -0.206182 -7.127885 75.030292 -3.141502 -3.640658 -32.172734 2.329800 -0.000000 -51.448100
12.783211 14.178984 1.593755 103.373284 -84.953981 -47.705155 -7.975693 -0.970037 4.808377 -9.305927 -16.973708 -97.151734 -0.083906 5.281276 72.443740 4.703481 11.128490 -32.852651 -4.963300 -0.000000 -31.243300 9.064484 2.341000 5.374284 1.099656 5.202441 -100.794501 -0.380395 -7.288270 76.477819 -3.186628 -3.731444 -32.702581 2.420001 0.000000 -51.394000
12.761440 14.072748 1.601219 103.891545 -84.955279 -47.655758 -7.966079 -1.072096 4.752866 -9.095749 -17.184724 -98.426092 0.079260 5.446600 73.975038 4.769032 11.307588 -33.437062 -5.154300 -0.000000 -31.213400 9.055278 2.446987 5.368352 0.880281 5.304637 -102.021824 -0.557661 -7.444053 77.908415 -3.231765 -3.828812 -33.220528 2.512100 0.000000 -51.383800
12.739264 13.966192 1.608663 104.486377 -84.970755 -47.703843 -7.958702 -1.176461 4.691555 -8.889934 -17.362445 -99.671739 0.245842 5.612734 75.496296 4.833630 11.493538 -34.012688 -5.348400 0.000000 -31.229300 9.043592 2.549304 5.359426 0.678659 5.417800 -103.213032 -0.738134 -7.595322 79.321116 -3.277165 -3.934497 -33.723521 2.606300 -0.000000 -51.421499
12.716305 13.859411 1.615993 105.157840 -84.997634 -47.845090 -7.952909 -1.281969 4.625768 -8.688986 -17.511105 -100.889880 0.415753 5.779259 77.004238 4.897694 11.687195 -34.578814 -5.545900 -0.000000 -31.282600 9.030293 2.648546 5.347983 0.492994 5.539158 -104.371545 -0.921427 -7.742556 80.715164 -3.322713 -4.047138 -34.212649 2.702501 0.000000 -51.505900
12.692399 13.752509 1.623121 105.893191 -85.032283 -48.063804 -7.948036 -1.387333 4.557657 -8.493119 -17.637634 -102.081728 0.589028 5.945435 78.496085 4.961685 11.889303 -35.135278 -5.747000 0.000001 -31.365600 9.016346 2.745448 5.335406 0.318702 5.664898 -105.501062 -1.107640 -7.886096 82.091035 -3.368490 -4.166511 -34.689147 2.800999 -0.000000 -51.632300
12.667541 13.645620 1.630028 106.670833 -85.073004 -48.337551 -7.944131 -1.492113 4.490626 -8.298470 -17.746766 -103.251955 0.765993 6.110829 79.970778 5.025674 12.098978 -35.681636 -5.951500 -0.000000 -31.471800 9.001934 2.839620 5.324801 0.150835 5.795526 -106.606784 -1.297369 -8.025618 83.449399 -3.415436 -4.295928 -35.154133 2.902800 0.000000 -51.792000
12.641390 13.538823 1.636490 107.482863 -85.113857 -48.655124 -7.939786 -1.594416 4.423832 -8.110601 -17.845370 -104.396723 0.945786 6.274841 81.425587 5.089526 12.313385 -36.220654 -6.159200 -0.000000 -31.594199 8.988774 2.933447 5.314808 -0.014657 5.921778 -107.688515 -1.489746 -8.162277 84.790753 -3.462508 -4.428576 -35.613747 3.006899 0.000000 -51.977100
12.613915 13.432232 1.642544 108.306367 -85.153732 -48.992750 -7.935206 -1.693711 4.360067 -7.927141 -17.937092 -105.519686 1.128302 6.437244 82.859799 5.152873 12.528872 -36.753423 -6.369200 0.000000 -31.731300 8.977071 3.026409 5.308420 -0.182272 6.044001 -108.749792 -1.684964 -8.295695 86.114746 -3.510304 -4.565645 -36.070098 3.113800 0.000000 -52.178300
12.584894 13.325898 1.648058 109.127965 -85.189582 -49.334257 -7.930138 -1.788772 4.300387 -7.749886 -18.025928 -106.621157 1.312850 6.597843 84.271669 5.215182 12.740668 -37.281659 -6.580200 -0.000000 -31.882900 8.967667 3.118891 5.306782 -0.354946 6.158716 -109.792627 -1.882533 -8.426221 87.420783 -3.558552 -4.703876 -36.526769 3.223100 0.000000 -52.390499
12.554210 13.219967 1.652987 109.930657 -85.217925 -49.662955 -7.923883 -1.878147 4.243990 -7.584573 -18.115969 -107.696164 1.498363 6.756306 85.658716 5.275884 12.944007 -37.807712 -6.790900 -0.000000 -32.052500 8.961733 3.212088 5.309093 -0.534193 6.259015 -110.814657 -2.081549 -8.554652 88.707884 -3.606105 -4.836648 -36.986976 3.332900 0.000000 -52.612899
12.521756 13.114533 1.657286 110.698372 -85.237747 -49.961964 -7.916623 -1.960967 4.192060 -7.432577 -18.209392 -108.745253 1.684259 6.912586 87.019148 5.334425 13.134820 -38.331218 -6.999700 -0.000000 -32.246500 8.959672 3.305406 5.316645 -0.719910 6.343672 -111.817092 -2.281562 -8.681144 89.974198 -3.652615 -4.961727 -37.450024 3.442100 0.000000 -52.848900
12.487445 13.009707 1.660959 111.418023 -85.248248 -50.217914 -7.908457 -2.036365 4.145174 -7.296303 -18.308238 -109.767360 1.869915 7.066545 88.350920 5.390468 13.310281 -38.851668 -7.204800 0.000000 -32.473300 8.961937 3.398383 5.330011 -0.910888 6.410731 -112.800227 -2.482053 -8.806045 91.217892 -3.697395 -5.076002 -37.913835 3.549400 -0.000001 -53.106301
12.451142 12.905611 1.664022 112.079473 -85.248732 -50.419386 -7.899726 -2.103669 4.103985 -7.177340 -18.413668 -110.761201 2.054848 7.217935 89.651522 5.443841 13.469456 -39.366368 -7.404900 -0.000000 -32.740800 8.968863 3.490197 5.349529 -1.104266 6.458927 -113.764067 -2.682615 -8.929616 92.436835 -3.739891 -5.177939 -38.374039 3.653000 0.000000 -53.396800
12.412875 12.802377 1.666571 112.672281 -85.240545 -50.556967 -7.890765 -2.163127 4.068252 -7.075845 -18.525652 -111.725356 2.238928 7.366471 90.919586 5.494431 13.612903 -39.871859 -7.598800 0.000000 -33.056600 8.980245 3.579999 5.374175 -1.295191 6.488017 -114.706765 -2.882890 -9.052162 93.629287 -3.779523 -5.266662 -38.825216 3.751900 -0.000000 -53.731600
